<?xml version="1.0" encoding="UTF-8" ?>
<!DOCTYPE svg PUBLIC "-//W3C//DTD SVG 1.1//EN" "http://www.w3.org/Graphics/SVG/1.1/DTD/svg11.dtd">
<svg width="100pt" height="100pt" viewBox="0 0 100 100" version="1.1" xmlns="http://www.w3.org/2000/svg">
<g id="#000000f9">
<path fill="#000000" opacity="0.98" d=" M 0.00 0.00 L 0.01 0.00 C 0.01 0.01 0.00 0.04 0.00 0.05 L 0.00 0.00 Z" />
<path fill="#000000" opacity="0.98"
      d=" M 16.97 13.41 C 38.86 13.41 60.75 13.40 82.64 13.41 C 82.55 35.39 82.85 57.39 82.49 79.36 C 60.65 79.15 38.80 79.34 16.96 79.27 C 16.95 57.32 16.93 35.36 16.97 13.41 M 19.72 16.27 C 19.67 36.30 19.71 56.33 19.70 76.36 C 39.78 76.40 59.85 76.37 79.93 76.37 C 79.91 56.34 79.93 36.30 79.92 16.27 C 59.85 16.28 39.79 16.27 19.72 16.27 Z" />
<path fill="#000000" opacity="0.98"
      d=" M 23.35 21.00 C 24.55 21.00 25.75 20.98 26.95 20.96 C 26.93 22.21 26.93 23.45 26.94 24.70 C 25.74 24.70 24.55 24.69 23.36 24.70 C 23.36 23.46 23.36 22.23 23.35 21.00 Z" />
<path fill="#000000" opacity="0.98"
      d=" M 72.37 20.98 C 73.59 20.99 74.80 20.99 76.01 20.97 C 76.00 22.22 75.99 23.47 75.99 24.71 C 74.79 24.70 73.58 24.69 72.38 24.69 C 72.38 23.46 72.38 22.22 72.37 20.98 Z" />
<path fill="#000000" opacity="0.98"
      d=" M 23.30 29.79 C 40.87 29.59 58.44 29.75 76.00 29.71 C 76.00 43.68 76.02 57.65 75.99 71.63 C 58.45 71.61 40.90 71.63 23.36 71.62 C 23.31 57.67 23.43 43.73 23.30 29.79 M 25.22 31.77 C 25.26 33.74 25.28 35.71 25.28 37.68 C 27.08 37.68 28.88 37.67 30.68 37.67 C 30.65 35.67 30.64 33.67 30.62 31.68 C 28.82 31.67 27.02 31.74 25.22 31.77 M 32.41 37.68 C 34.25 37.68 36.09 37.68 37.94 37.69 C 37.95 35.70 37.96 33.71 37.96 31.73 C 36.16 31.72 34.35 31.68 32.54 31.61 C 32.40 33.63 32.32 35.65 32.41 37.68 M 39.70 31.70 C 39.68 33.70 39.71 35.70 39.75 37.71 C 41.52 37.69 43.29 37.68 45.07 37.67 C 45.08 35.68 45.08 33.69 45.07 31.70 C 43.28 31.71 41.49 31.71 39.70 31.70 M 46.99 31.70 C 46.99 33.70 47.00 35.70 47.01 37.70 C 48.81 37.71 50.62 37.65 52.42 37.61 C 52.39 35.64 52.37 33.67 52.36 31.70 C 50.57 31.71 48.78 31.71 46.99 31.70 M 54.07 31.71 C 54.07 33.70 54.08 35.70 54.09 37.70 C 55.94 37.68 57.80 37.67 59.65 37.65 C 59.63 35.67 59.62 33.68 59.60 31.70 C 57.76 31.70 55.91 31.70 54.07 31.71 M 61.31 31.81 C 61.36 33.76 61.39 35.72 61.38 37.68 C 63.22 37.68 65.07 37.68 66.91 37.68 C 66.92 35.69 66.93 33.70 66.93 31.71 C 65.06 31.63 63.18 31.73 61.31 31.81 M 68.68 31.71 C 68.59 33.73 68.69 35.74 68.79 37.76 C 70.53 37.70 72.27 37.67 74.01 37.67 C 74.02 35.68 74.03 33.69 74.03 31.69 C 72.24 31.70 70.46 31.71 68.68 31.71 M 25.24 39.75 C 25.26 41.73 25.28 43.71 25.28 45.69 C 27.08 45.68 28.87 45.67 30.67 45.66 C 30.65 43.66 30.65 41.67 30.63 39.67 C 28.83 39.69 27.04 39.72 25.24 39.75 M 32.40 45.67 C 34.25 45.68 36.09 45.68 37.94 45.69 C 37.95 43.70 37.95 41.71 37.96 39.72 C 36.14 39.70 34.33 39.68 32.51 39.64 C 32.42 41.65 32.32 43.66 32.40 45.67 M 39.71 39.70 C 39.64 41.71 39.73 43.72 39.78 45.73 C 41.54 45.69 43.31 45.67 45.07 45.67 C 45.08 43.68 45.08 41.69 45.07 39.70 C 43.28 39.71 41.50 39.71 39.71 39.70 M 46.99 39.70 C 46.99 41.69 47.00 43.69 47.01 45.69 C 48.83 45.76 50.65 45.64 52.48 45.54 C 52.40 43.60 52.36 41.65 52.35 39.70 C 50.56 39.70 48.78 39.70 46.99 39.70 M 54.07 39.72 C 54.07 41.71 54.08 43.70 54.08 45.69 C 55.94 45.68 57.79 45.67 59.65 45.66 C 59.63 43.67 59.62 41.68 59.61 39.69 C 57.76 39.70 55.92 39.71 54.07 39.72 M 61.38 45.68 C 63.23 45.68 65.07 45.68 66.92 45.68 C 66.92 43.69 66.93 41.71 66.93 39.72 C 65.12 39.71 63.32 39.67 61.52 39.61 C 61.38 41.63 61.29 43.65 61.38 45.68 M 68.68 39.70 C 68.62 41.71 68.71 43.72 68.74 45.73 C 70.50 45.69 72.26 45.68 74.01 45.67 C 74.02 43.68 74.03 41.69 74.02 39.70 C 72.24 39.70 70.46 39.71 68.68 39.70 M 25.31 53.66 C 27.09 53.65 28.88 53.64 30.67 53.63 C 30.65 51.64 30.65 49.65 30.64 47.66 C 28.89 47.64 27.15 47.61 25.40 47.58 C 25.32 49.61 25.23 51.63 25.31 53.66 M 32.40 53.68 C 34.25 53.68 36.09 53.68 37.94 53.68 C 37.95 51.68 37.95 49.67 37.96 47.67 C 36.12 47.65 34.29 47.64 32.46 47.60 C 32.43 49.63 32.35 51.65 32.40 53.68 M 39.70 47.65 C 39.69 49.66 39.70 51.67 39.72 53.68 C 41.50 53.68 43.29 53.68 45.07 53.68 C 45.08 51.67 45.08 49.66 45.07 47.65 C 43.28 47.65 41.49 47.66 39.70 47.65 M 46.99 47.64 C 46.99 49.65 47.00 51.66 47.01 53.67 C 48.81 53.71 50.61 53.61 52.42 53.56 C 52.37 51.59 52.35 49.63 52.34 47.67 C 50.55 47.66 48.77 47.65 46.99 47.64 M 54.20 47.76 C 54.26 49.72 54.29 51.69 54.28 53.66 C 56.07 53.65 57.86 53.64 59.65 53.64 C 59.63 51.63 59.62 49.63 59.60 47.63 C 57.80 47.59 56.00 47.68 54.20 47.76 M 61.37 53.67 C 63.22 53.68 65.07 53.68 66.91 53.69 C 66.92 51.68 66.93 49.68 66.93 47.67 C 65.10 47.66 63.26 47.64 61.43 47.61 C 61.40 49.63 61.33 51.65 61.37 53.67 M 68.67 47.65 C 68.63 49.67 68.70 51.70 68.73 53.72 C 70.49 53.69 72.25 53.68 74.01 53.67 C 74.02 51.66 74.03 49.65 74.02 47.65 C 72.24 47.65 70.46 47.66 68.67 47.65 M 25.27 55.67 C 25.27 57.65 25.27 59.64 25.28 61.63 C 27.08 61.63 28.88 61.62 30.68 61.62 C 30.65 59.62 30.64 57.62 30.62 55.63 C 28.84 55.65 27.05 55.66 25.27 55.67 M 32.41 61.62 C 34.25 61.62 36.09 61.63 37.94 61.63 C 37.95 59.65 37.96 57.66 37.96 55.67 C 36.14 55.65 34.31 55.63 32.48 55.58 C 32.44 57.59 32.33 59.61 32.41 61.62 M 39.71 55.64 C 39.70 57.61 39.69 59.58 39.66 61.55 C 41.46 61.59 43.27 61.67 45.08 61.64 C 45.08 59.65 45.08 57.65 45.07 55.66 C 43.28 55.66 41.50 55.65 39.71 55.64 M 46.99 55.64 C 46.99 57.64 47.00 59.64 47.01 61.65 C 48.80 61.63 50.60 61.62 52.40 61.59 C 52.38 59.61 52.38 57.63 52.37 55.66 C 50.58 55.66 48.78 55.65 46.99 55.64 M 54.06 55.66 C 54.07 57.65 54.08 59.65 54.09 61.64 C 55.94 61.63 57.79 61.62 59.64 61.61 C 59.63 59.62 59.62 57.63 59.61 55.64 C 57.76 55.65 55.91 55.65 54.06 55.66 M 61.38 61.62 C 63.22 61.63 65.07 61.63 66.91 61.63 C 66.92 59.64 66.93 57.66 66.93 55.67 C 65.11 55.65 63.29 55.63 61.47 55.58 C 61.41 57.59 61.30 59.61 61.38 61.62 M 68.69 55.64 C 68.68 57.61 68.66 59.57 68.62 61.54 C 70.41 61.58 72.21 61.67 74.01 61.64 C 74.02 59.65 74.03 57.66 74.03 55.67 C 72.25 55.67 70.47 55.65 68.69 55.64 M 25.26 63.70 C 25.27 65.69 25.27 67.67 25.28 69.66 C 27.08 69.65 28.87 69.64 30.67 69.64 C 30.65 67.64 30.65 65.65 30.63 63.65 C 28.84 63.68 27.05 63.68 25.26 63.70 M 32.40 69.64 C 34.25 69.65 36.09 69.65 37.94 69.66 C 37.95 67.67 37.95 65.68 37.96 63.70 C 36.15 63.68 34.34 63.65 32.54 63.58 C 32.41 65.60 32.32 67.62 32.40 69.64 M 39.70 63.67 C 39.68 65.67 39.72 67.68 39.75 69.68 C 41.52 69.66 43.30 69.65 45.08 69.65 C 45.08 67.66 45.08 65.67 45.07 63.68 C 43.28 63.69 41.49 63.68 39.70 63.67 M 46.99 63.67 C 46.99 65.67 47.00 67.67 47.01 69.67 C 48.81 69.65 50.60 69.64 52.40 69.61 C 52.38 67.63 52.37 65.65 52.36 63.68 C 50.57 63.68 48.78 63.67 46.99 63.67 M 54.07 63.68 C 54.07 65.68 54.08 67.67 54.09 69.67 C 55.94 69.65 57.80 69.64 59.65 69.63 C 59.63 67.64 59.62 65.65 59.60 63.66 C 57.75 63.67 55.91 63.67 54.07 63.68 M 61.28 63.81 C 61.36 65.75 61.40 67.70 61.38 69.65 C 63.22 69.65 65.07 69.65 66.91 69.66 C 66.92 67.67 66.93 65.67 66.93 63.68 C 65.04 63.58 63.16 63.69 61.28 63.81 M 68.69 63.68 C 68.68 65.62 68.65 67.57 68.58 69.51 C 70.39 69.62 72.20 69.72 74.01 69.66 C 74.02 67.66 74.03 65.66 74.02 63.67 C 72.24 63.67 70.47 63.68 68.69 63.68 Z" />
</g>
</svg>
