<?xml version="1.0" encoding="UTF-8" ?>
<!DOCTYPE svg PUBLIC "-//W3C//DTD SVG 1.1//EN" "http://www.w3.org/Graphics/SVG/1.1/DTD/svg11.dtd">
<svg width="100pt" height="100pt" viewBox="0 0 100 100" version="1.1" xmlns="http://www.w3.org/2000/svg">
<g id="#000000ff">
<path fill="#ffffff" opacity="1.00" d=" M 0.46 0.00 L 87.16 0.00 C 88.41 3.46 89.04 8.24 86.01 10.96 C 75.93 21.52 65.96 32.19 55.97 42.83 C 55.96 58.54 56.13 74.26 55.90 89.96 C 55.89 92.65 52.78 91.92 51.39 90.75 C 45.09 86.67 38.28 83.32 32.23 78.87 C 31.55 66.93 32.40 54.91 31.84 42.96 C 30.40 40.53 28.13 38.75 26.27 36.65 C 17.53 27.30 8.64 18.09 0.00 8.65 L 0.00 0.55 C 0.11 0.42 0.34 0.14 0.46 0.00 M 4.01 4.00 C 4.00 4.80 3.97 6.39 3.96 7.18 C 14.24 18.13 24.58 29.02 34.84 39.99 C 40.94 40.02 47.04 39.98 53.13 40.01 C 63.42 29.05 73.79 18.16 84.04 7.17 C 84.03 6.38 84.00 4.79 83.99 4.00 C 57.33 4.00 30.67 4.00 4.01 4.00 M 36.00 44.00 C 36.00 54.98 36.00 65.95 36.00 76.93 C 41.35 80.08 46.67 83.29 52.00 86.48 C 52.00 72.32 52.00 58.16 52.00 44.00 C 46.67 44.00 41.33 44.00 36.00 44.00 Z" />
<path fill="#ffffff" opacity="1.00" d=" M 64.69 67.46 C 62.33 65.74 65.75 62.39 67.47 64.71 C 72.47 69.34 77.12 74.35 82.01 79.10 C 86.89 74.37 91.52 69.37 96.49 64.74 C 97.48 63.58 98.82 64.33 100.00 64.65 L 100.00 66.76 C 95.13 71.99 89.90 76.88 84.91 82.00 C 89.90 87.13 95.13 92.01 100.00 97.25 L 100.00 99.45 C 99.89 99.58 99.66 99.86 99.54 100.00 L 97.27 100.00 C 92.03 95.12 87.13 89.89 82.01 84.89 C 76.90 89.90 71.98 95.12 66.74 100.00 L 64.98 100.00 C 64.64 99.49 63.97 98.46 63.64 97.94 C 68.35 92.22 74.01 87.37 79.12 82.00 C 74.36 77.11 69.35 72.44 64.69 67.46 Z"  />
</g>
</svg>
