<?xml version="1.0" encoding="iso-8859-1"?>

<svg version="1.1" id="Capa_1" xmlns="http://www.w3.org/2000/svg" xmlns:xlink="http://www.w3.org/1999/xlink" x="0px" y="0px"
	 viewBox="0 0 512 512" style="enable-background:new 0 0 512 512;" xml:space="preserve">
<g>
	<g>
		<g>
			<path d="M251,290.133l19.567-19.567c1.601-1.6,2.5-3.77,2.5-6.033c0-2.263-0.899-4.433-2.5-6.033c-1.6-1.601-3.77-2.5-6.033-2.5
				s-4.433,0.899-6.033,2.5l-19.566,19.566L219.366,258.5c-3.338-3.296-8.711-3.279-12.029,0.038
				c-3.317,3.317-3.334,8.691-0.038,12.029l19.566,19.567L207.3,309.7c-2.178,2.151-3.037,5.304-2.251,8.262
				c0.786,2.958,3.097,5.269,6.055,6.055s6.111-0.073,8.262-2.251l19.567-19.566l19.567,19.567c2.151,2.178,5.304,3.037,8.262,2.251
				c2.958-0.786,5.269-3.097,6.055-6.055s-0.073-6.111-2.251-8.262L251,290.133z"/>
			<path d="M460.8,0c-28.264,0.031-51.169,22.936-51.2,51.2H102.4C102.4,22.923,79.477,0,51.2,0S0,22.923,0,51.2v409.6
				c0.031,28.264,22.936,51.169,51.2,51.2h409.6c28.264-0.031,51.169-22.936,51.2-51.2V51.2C511.969,22.936,489.064,0.031,460.8,0z
				 M409.6,68.267v75.156c-47.91-10.296-72.408-54.342-81.438-75.156H409.6z M309.659,68.267
				c7.411,19.818,35.317,81.254,99.941,92.717v75.348C254.082,193.856,203.954,99.852,191.224,68.267H309.659z M17.067,51.2
				c0.02-18.843,15.29-34.113,34.133-34.133c18.843,0.02,34.113,15.29,34.133,34.133v371.545c-19.381-17.527-48.886-17.527-68.267,0
				V51.2z M51.2,494.933c-18.843-0.02-34.113-15.29-34.133-34.133c0-18.851,15.282-34.133,34.133-34.133
				s34.133,15.282,34.133,34.133c0,4.713,3.821,8.533,8.533,8.533c4.713,0,8.533-3.82,8.533-8.533V359.386
				c89.472,13.378,169.781,62.238,222.79,135.547H51.2z M460.8,494.933H345.857C290.565,411.24,201.806,355.519,102.4,342.095
				V199.951c0.865,2.091,1.699,4.198,2.625,6.254c12.674,28.352,33.373,52.372,59.542,69.096c3.45,2.2,7.058,4.275,10.733,6.163
				c4.191,2.139,9.322,0.484,11.472-3.702c2.15-4.185,0.507-9.321-3.672-11.482c-3.142-1.613-6.267-3.392-9.358-5.367
				c-23.365-14.939-41.842-36.395-53.15-61.717c-11.36-25.122-17.547-52.274-18.192-79.838V68.267h70.493
				c9.485,28.087,57.598,138.6,236.707,185.738v94.385c-27.038-24.797-66.285-43.561-117.408-55.719
				c-4.579-1.078-9.166,1.754-10.255,6.33c-1.089,4.576,1.732,9.17,6.305,10.27c56.397,13.412,97.125,34.835,121.358,63.582V460.8
				c0,4.713,3.82,8.533,8.533,8.533s8.533-3.82,8.533-8.533c0-18.851,15.282-34.133,34.133-34.133
				c18.851,0,34.133,15.282,34.133,34.133C494.933,479.651,479.651,494.933,460.8,494.933z M494.933,422.745
				c-19.381-17.527-48.886-17.527-68.267,0V51.2c0-18.851,15.282-34.133,34.133-34.133c18.851,0,34.133,15.282,34.133,34.133
				V422.745z"/>
		</g>
	</g>
</g>

</svg>
